<?xml version="1.0" encoding="UTF-8" standalone="no"?>
<!-- Created with Inkscape (http://www.inkscape.org/) -->
<svg xmlns:dc="http://purl.org/dc/elements/1.1/" xmlns:cc="http://creativecommons.org/ns#" xmlns:rdf="http://www.w3.org/1999/02/22-rdf-syntax-ns#" xmlns:svg="http://www.w3.org/2000/svg" xmlns="http://www.w3.org/2000/svg" width="518" height="123" version="1.1" viewBox="0 0 518 123" id="svg2" xml:space="preserve"><metadata id="metadata8"><rdf:RDF><cc:Work rdf:about=""><dc:format>image/svg+xml</dc:format><dc:type rdf:resource="http://purl.org/dc/dcmitype/StillImage"/><dc:title/></cc:Work></rdf:RDF></metadata><defs id="defs6"/><g transform="matrix(1.25,0,0,-1.25,0,122.6625)" id="g10"><g transform="scale(0.1,0.1)" id="g12"><path d="m 613.883,306.02 c 1.219,-4.071 2.519,-8.071 3.898,-12.008 11.571,-33.09 27.481,-61.41 47.762,-84.973 20.25,-23.578 44.437,-41.57 72.566,-53.969 28.102,-12.41 58.711,-18.609 91.801,-18.609 54.582,0 101.102,13.238 139.563,39.699 38.447,26.461 68.417,62.43 89.937,107.93 l -22.33,12.398 c -15.72,-26.476 -37.428,-49.429 -65.131,-68.847 -27.719,-19.442 -60.168,-29.153 -97.379,-29.153 -58.738,0 -103.8,21.282 -135.218,63.891 -31.442,42.582 -47.141,102.34 -47.141,179.262 0,72.757 15.91,129.418 47.762,169.949 31.828,40.512 72.976,60.785 123.429,60.785 21.5,0 40.731,-3.102 57.688,-9.305 16.941,-6.203 26.672,-13.027 29.152,-20.468 0,-4.149 -2.91,-9.11 -8.679,-14.883 -5.801,-5.801 -8.692,-15.723 -8.692,-29.774 -3.308,-19.039 0.621,-35.164 11.789,-48.386 11.16,-13.239 25.832,-19.848 44.039,-19.848 14.051,0 26.861,5.367 38.451,16.129 11.57,10.738 17.37,25.219 17.37,43.418 0,16.535 -4.55,31.828 -13.65,45.902 -9.11,14.051 -21.51,26.051 -37.21,35.977 -15.719,9.922 -34.328,17.769 -55.828,23.566 -21.512,5.777 -45.082,8.688 -70.711,8.688 -40.531,0 -77.121,-7.25 -109.781,-21.711 -32.68,-14.481 -60.598,-34.739 -83.738,-60.789 -23.161,-26.047 -41.153,-57.493 -53.961,-94.282 -12.809,-36.808 -19.231,-77.121 -19.231,-120.949 0,-11.09 0.41,-21.89 1.25,-32.379 l -0.238,-0.019 -12.172,-39.551 C 580.141,310.539 571.051,289.859 561.961,271.68 552.852,253.48 540.25,238.191 524.133,225.781 508,213.379 486.293,203.641 459,196.629 431.703,189.59 394.895,186.078 348.59,186.078 l -142.66,0 0,353.563 73.191,0 c 28.106,0 50.238,-0.84 66.367,-2.481 16.125,-1.672 28.727,-5.18 37.836,-10.551 9.094,-5.39 16.125,-12.828 21.09,-22.328 4.965,-9.519 9.922,-22.133 14.887,-37.832 l 12.402,-35.98 19.848,0 0,249.347 -19.848,0 -12.402,-35.972 c -4.965,-15.723 -9.922,-28.336 -14.887,-37.836 -4.965,-9.52 -11.996,-16.961 -21.09,-22.332 -9.109,-5.387 -21.711,-8.895 -37.836,-10.543 -16.129,-1.668 -38.261,-2.485 -66.367,-2.485 l -73.191,0 0,326.266 112.886,0 c 41.344,0 74.84,-2.289 100.485,-6.824 25.621,-4.559 45.898,-12.211 60.789,-22.949 14.883,-10.758 25.832,-25.028 32.871,-42.797 7.012,-17.797 13.019,-39.91 17.988,-66.371 l 8.684,-50.864 27.289,0 0,220.817 -565.68372,0 0,-28.535 49.62112,-3.719 c 25.625,-1.668 41.5586,-6.824 47.7617,-15.504 6.2029,-8.688 9.3049,-21.305 9.3049,-37.84 l 0,-600.418 c 0,-33.922 -16.9612,-52.531 -50.8635,-55.832 L 0,181.121 0,152.59 l 583.051,0 30.742,152.879 0.09,0.551 0,0" id="path14" style="fill:#47c1af;fill-opacity:1;fill-rule:nonzero;stroke:none"/><path d="m 1042.03,181.121 31.01,1.238 c 15.7,1.653 26.86,6.61 33.49,14.891 6.61,8.262 9.93,21.898 9.93,40.941 l 0,627.707 c 0,19.848 -2.29,33.286 -6.82,40.321 -4.56,7.015 -15.1,12.597 -31.64,16.746 l -44.66,9.926 0,22.324 168.71,26.055 0,-382.086 2.49,-1.239 c 21.49,29.774 49.4,54.582 83.73,74.43 34.31,19.848 70.09,29.773 107.31,29.773 28.94,0 52.72,-5.175 71.33,-15.503 18.61,-10.356 33.28,-22.547 44.04,-36.602 13.22,-16.551 22.95,-36.398 29.15,-59.543 6.2,-23.16 9.3,-47.969 9.3,-74.43 l 0,-279.121 c 0,-16.558 2.27,-29.371 6.83,-38.461 4.53,-9.109 19.63,-14.476 45.28,-16.129 l 29.77,-1.238 0,-28.531 -244.39,0 0,28.531 33.5,1.238 c 19.01,1.653 31.02,7.02 35.97,16.129 4.97,9.09 7.45,22.332 7.45,39.703 l 0,256.789 c 0,44.661 -9.11,79.801 -27.29,105.442 -18.2,25.629 -45.49,38.457 -81.88,38.457 -14.88,0 -29.58,-2.481 -44.04,-7.441 -14.48,-4.965 -28.53,-11.379 -42.17,-19.227 -13.65,-7.871 -26.27,-17.176 -37.84,-27.914 -11.59,-10.754 -21.09,-22.328 -28.54,-34.738 l 0,-313.86 c 0,-17.359 2.89,-30.187 8.69,-38.449 5.77,-8.281 20.26,-13.238 43.42,-14.891 l 32.25,-1.238 0,-28.531 -244.38,0 0,28.531" id="path16" style="fill:#47c1af;fill-opacity:1;fill-rule:nonzero;stroke:none"/><path d="m 1872.35,166.238 c 52.1,0 91.59,21.121 118.47,63.422 26.87,42.27 40.32,101.141 40.32,176.578 0,30.66 -1.86,61.563 -5.58,92.653 -3.73,31.089 -11.38,59.492 -22.95,85.195 -11.6,25.703 -28.13,46.637 -49.62,62.801 -21.52,16.164 -50.05,24.25 -85.6,24.25 -53.77,0 -93.88,-21.149 -120.34,-63.426 -26.47,-42.297 -39.69,-99.902 -39.69,-172.859 0,-31.524 1.43,-63.012 4.34,-94.512 2.89,-31.52 9.93,-60.32 21.09,-86.43 11.16,-26.129 27.7,-47.262 49.62,-63.43 21.91,-16.16 51.89,-24.242 89.94,-24.242 l 0,0 z m -3.72,-31.019 c -39.7,0 -75.67,6.609 -107.93,19.812 -32.25,13.199 -59.76,31.969 -82.49,56.309 -22.76,24.351 -40.13,53.851 -52.11,88.512 -11.98,34.648 -17.98,73.437 -17.98,116.347 0,42.922 6.41,81.903 19.23,116.981 12.8,35.066 30.58,65.187 53.34,90.371 22.74,25.156 50.43,44.562 83.11,58.168 32.67,13.605 68.85,20.429 108.55,20.429 39.7,0 75.46,-6.394 107.31,-19.187 31.82,-12.793 58.92,-31.363 81.25,-55.711 22.33,-24.344 39.49,-53.633 51.48,-87.879 11.98,-34.25 17.99,-72.422 17.99,-114.5 0,-43.73 -6.21,-83.543 -18.61,-119.441 -12.4,-35.899 -30.19,-66.45 -53.34,-91.61 -23.16,-25.179 -50.67,-44.582 -82.49,-58.191 -31.85,-13.578 -67.62,-20.41 -107.31,-20.41 l 0,0" id="path18" style="fill:#47c1af;fill-opacity:1;fill-rule:nonzero;stroke:none"/><path d="m 2817.62,287.809 0,348.589 -2.48,0 -235.7,-348.589 238.18,0 0,0 z m -278.19,-68.231 -45.58,-66.988 -363.48,0 0,34.738 c 60.35,48.781 110.81,90.75 151.34,125.91 40.51,35.141 72.77,66.371 96.77,93.66 23.98,27.293 41.13,52.512 51.48,75.672 10.33,23.149 15.5,46.719 15.5,70.715 0,40.512 -11.38,72.57 -34.11,96.141 -22.75,23.566 -52.31,35.355 -88.7,35.355 -37.21,0 -66.8,-10.14 -88.7,-30.394 -21.92,-20.274 -39.91,-48.594 -53.96,-84.977 l -28.53,12.406 c 7.44,24.809 17.77,47.758 31.01,68.852 13.22,21.086 29.16,39.074 47.76,53.961 18.61,14.887 39.27,26.461 62.03,34.738 22.74,8.254 46.52,12.403 71.33,12.403 23.97,0 46.3,-3.934 66.99,-11.786 20.66,-7.871 38.46,-18.824 53.34,-32.875 14.89,-14.07 26.46,-30.39 34.74,-49 8.25,-18.609 12.4,-39.078 12.4,-61.406 0,-31.441 -6,-60.594 -17.98,-87.465 -12,-26.879 -30.4,-54.168 -55.21,-81.867 -24.81,-27.723 -56.04,-57.492 -93.66,-89.32 -37.64,-31.852 -81.68,-68.039 -132.12,-108.551 l 0,-2.48 261.22,0 372.7,545.839 31.01,0 0,-485.05 125.29,-1.239 0,-66.992 -125.29,0 0,-219.578 -79.4,0 0,219.578 -278.19,0 0,0" id="path20" style="fill:#47c1af;fill-opacity:1;fill-rule:nonzero;stroke:none"/><path d="m 3146.37,136.461 c -19.86,0 -36.4,6.629 -49.63,19.848 -13.23,13.222 -19.85,28.941 -19.85,47.14 0,17.371 6.62,32.66 19.85,45.903 13.23,13.218 29.77,19.847 49.63,19.847 19.85,0 35.97,-6.629 48.37,-19.847 12.41,-13.243 18.61,-28.532 18.61,-45.903 0,-18.199 -6.2,-33.918 -18.61,-47.14 -12.4,-13.219 -28.52,-19.848 -48.37,-19.848 l 0,0" id="path22" style="fill:#788390;fill-opacity:1;fill-rule:nonzero;stroke:none"/><path d="m 3455.24,136.461 c -33.09,0 -63.69,6.199 -91.79,18.609 -28.14,12.399 -52.32,30.391 -72.58,53.969 -20.27,23.563 -36.19,51.883 -47.76,84.973 -11.57,33.066 -17.37,70.289 -17.37,111.648 0,43.828 6.41,84.141 19.23,120.949 12.81,36.789 30.8,68.235 53.96,94.282 23.15,26.05 51.06,46.308 83.74,60.789 32.66,14.461 69.26,21.711 109.79,21.711 25.62,0 49.19,-2.911 70.71,-8.688 21.5,-5.797 40.1,-13.644 55.82,-23.566 15.7,-9.926 28.11,-21.926 37.22,-35.977 9.09,-14.074 13.65,-29.367 13.65,-45.902 0,-18.199 -5.8,-32.68 -17.38,-43.418 -11.59,-10.762 -24.39,-16.129 -38.45,-16.129 -18.2,0 -32.88,6.609 -44.04,19.848 -11.16,13.222 -15.1,29.347 -11.78,48.386 0,14.051 2.88,23.973 8.68,29.774 5.77,5.773 8.68,10.734 8.68,14.883 -2.48,7.441 -12.21,14.265 -29.14,20.468 -16.97,6.203 -36.2,9.305 -57.7,9.305 -50.45,0 -91.6,-20.273 -123.43,-60.785 -31.84,-40.531 -47.76,-97.192 -47.76,-169.949 0,-76.922 15.7,-136.68 47.14,-179.262 31.43,-42.609 76.49,-63.891 135.22,-63.891 37.22,0 69.66,9.711 97.38,29.153 27.7,19.418 49.41,42.371 65.13,68.847 l 22.33,-12.398 c -21.51,-45.488 -51.48,-81.469 -89.94,-107.93 -38.46,-26.461 -84.98,-39.699 -139.56,-39.699 l 0,0" id="path24" style="fill:#788390;fill-opacity:1;fill-rule:nonzero;stroke:none"/><path d="m 3704.58,181.121 321.29,473.887 -93.04,0 c -34.73,0 -61.83,-2.074 -81.25,-6.203 -19.44,-4.149 -34.73,-10.973 -45.9,-20.469 -11.16,-9.52 -19.44,-21.711 -24.81,-36.594 -5.39,-14.89 -10.54,-32.683 -15.51,-53.344 l -12.41,-50.867 -27.29,0 0,198.489 403.18,0 0,-28.61 -322.54,-473.808 106.69,0 c 34.73,0 62.43,2.058 83.11,6.207 20.66,4.121 37.22,10.73 49.62,19.839 12.41,9.09 22.12,20.672 29.15,34.743 7.02,14.05 13.85,31.418 20.48,52.097 l 17.36,53.352 27.29,0 -14.88,-197.25 -420.54,0 0,28.531" id="path26" style="fill:#788390;fill-opacity:1;fill-rule:nonzero;stroke:none"/></g></g></svg>